<svg artist="Katerina Limpitsouni" height="783.031" role="img" source="https://undraw.co/"
    viewBox="0 0 800 783.031" width="800" xmlns="http://www.w3.org/2000/svg">
    <g data-name="Group 178" id="Group_178" transform="translate(-656 -242)">
        <g data-name="Group 177" id="Group_177" transform="translate(656 242)">
            <path
                d="M914.2,382.533q-.65-3.406-1.369-6.789c-1.077-5.056-2.259-10.1-3.535-15.1-.632-2.528-1.311-5.056-2-7.573v-.012A392.052,392.052,0,0,0,545.043,66.735h-.035q-7.532-.3-15.1-.293c-1.381,0-2.762.012-4.131.035A391.992,391.992,0,0,0,152.944,351.586q-1.089,3.827-2.072,7.678c-1.311,5.045-2.5,10.113-3.617,15.216v.012c-.492,2.282-.96,4.553-1.416,6.835a395.6,395.6,0,0,0-7.444,76.629c0,9.82.363,19.652,1.089,29.3.105,1.381.21,2.762.327,4.132.281,3.453.632,7.046,1.042,10.7a391.609,391.609,0,0,0,756.588,91.084q4.056-11.008,7.421-22.239a385.285,385.285,0,0,0,12.407-55.76q.965-6.531,1.7-13.086c.41-3.652.761-7.245,1.042-10.686.936-10.967,1.416-22.215,1.416-33.44a395.4,395.4,0,0,0-7.221-75.424Z"
                data-name="Path 2918" fill="#fff" id="Path_2918-1775"
                transform="translate(-121.423 -66.442)" />
            <path
                d="M506.048,137.05a1.028,1.028,0,1,1,0-2.057h68.076A32.535,32.535,0,0,1,605.6,110.127a45.245,45.245,0,0,1,82.18-9.652c1.012-.079,2-.119,2.958-.119a38.41,38.41,0,0,1,38.2,35.592,1.028,1.028,0,0,1-.954,1.1l-.073,0a1.028,1.028,0,0,1-1.025-.956Z"
                data-name="Path 2919" fill="#e6e6e6" id="Path_2919-1776"
                transform="translate(-5.811 -62.72)" />
            <path
                d="M705.856,133.47H537.193a1.028,1.028,0,1,1,0-2.057H705.856a1.028,1.028,0,1,1,0,2.057Z"
                data-name="Path 2920" fill="#e6e6e6" id="Path_2920-1777"
                transform="translate(4.01 -45.954)" />
            <rect data-name="Rectangle 663" fill="#090814" height="108.524" id="Rectangle_663"
                transform="translate(88.233 423.738)" width="46.814" />
            <rect data-name="Rectangle 664" fill="#090814" height="108.524" id="Rectangle_664"
                transform="translate(681.923 423.738)" width="46.814" />
            <path
                d="M889.646,466.426C834.857,615.354,691.711,721.583,523.764,721.583S212.671,615.354,157.882,466.426Z"
                data-name="Path 2921" fill="#059669" id="Path_2921-1778"
                transform="translate(-115.278 59.69)" />
            <circle cx="134.601" cy="134.601" data-name="Ellipse 470" fill="#e6e6e6"
                id="Ellipse_470" r="134.601" transform="translate(0 62.619)" />
            <path
                d="M914.2,382.533q-.65-3.406-1.369-6.789c-1.077-5.056-2.259-10.1-3.535-15.1-.632-2.528-1.311-5.056-2-7.573v-.012A392.052,392.052,0,0,0,545.043,66.735h-.035q-7.532-.3-15.1-.293c-1.381,0-2.762.012-4.131.035A391.992,391.992,0,0,0,152.944,351.586q-1.089,3.827-2.072,7.678c-1.311,5.045-2.5,10.113-3.617,15.216v.012c-.492,2.282-.96,4.553-1.416,6.835a395.6,395.6,0,0,0-7.444,76.629c0,9.82.363,19.652,1.089,29.3.105,1.381.21,2.762.327,4.132.281,3.453.632,7.046,1.042,10.7a391.609,391.609,0,0,0,756.588,91.084q4.056-11.008,7.421-22.239a385.285,385.285,0,0,0,12.407-55.76q.965-6.531,1.7-13.086c.41-3.652.761-7.245,1.042-10.686.936-10.967,1.416-22.215,1.416-33.44a395.4,395.4,0,0,0-7.221-75.424ZM916.507,491.1c-.269,3.406-.62,6.976-1.03,10.581q-.737,6.514-1.673,12.992a386.684,386.684,0,0,1-12.3,55.268q-3.354,11.113-7.362,22C838.252,743.885,691.875,845.96,529.909,845.96S221.567,743.885,165.678,591.949a385.547,385.547,0,0,1-21.337-90.265c-.41-3.6-.761-7.175-1.042-10.593-.117-1.358-.222-2.715-.327-4.085-.7-9.562-1.065-19.324-1.065-29.05a387.49,387.49,0,0,1,8.4-80.5c.492-2.353,1.018-4.693,1.545-7.034v-.012q1.861-7.936,4.015-15.754c.2-.726.4-1.451.609-2.165q.28-1.036.6-2.072c.351-1.264.726-2.516,1.1-3.757C205.754,188.028,352.317,71.779,525.8,69.977c1.369-.012,2.739-.023,4.108-.023q7.515,0,14.982.281c169.27,6.461,311.117,121.89,357.221,277.981q1.159,3.933,2.247,7.912c1.4,5.15,2.7,10.358,3.9,15.59q.79,3.476,1.51,6.987a387.08,387.08,0,0,1,8.146,79.251C917.912,469.076,917.444,480.23,916.507,491.1Z"
                data-name="Path 2922" fill="#090814" id="Path_2922-1779"
                transform="translate(-121.423 -66.442)" />
            <rect data-name="Rectangle 665" fill="#090814" height="68.093" id="Rectangle_665"
                transform="translate(93.554 360.965)" width="36.175" />
            <rect data-name="Rectangle 666" fill="#090814" height="153.21" id="Rectangle_666"
                transform="translate(98.874 214.138)" width="8.512" />
            <rect data-name="Rectangle 667" fill="#090814" height="153.21" id="Rectangle_667"
                transform="translate(115.897 214.138)" width="8.512" />
            <rect data-name="Rectangle 668" fill="#090814" height="10.64" id="Rectangle_668"
                transform="translate(103.131 220.522)" width="19.151" />
            <rect data-name="Rectangle 669" fill="#090814" height="10.64" id="Rectangle_669"
                transform="translate(103.131 263.08)" width="19.151" />
            <rect data-name="Rectangle 670" fill="#090814" height="10.64" id="Rectangle_670"
                transform="translate(103.131 309.894)" width="19.151" />
            <rect data-name="Rectangle 671" fill="#090814" height="10.64" id="Rectangle_671"
                transform="translate(101.001 207.754)" width="4.256" />
            <rect data-name="Rectangle 672" fill="#090814" height="10.64" id="Rectangle_672"
                transform="translate(118.026 207.754)" width="4.256" />
            <rect data-name="Rectangle 673" fill="#090814" height="68.093" id="Rectangle_673"
                transform="translate(687.243 360.965)" width="36.175" />
            <rect data-name="Rectangle 674" fill="#090814" height="153.21" id="Rectangle_674"
                transform="translate(692.564 214.138)" width="8.512" />
            <rect data-name="Rectangle 675" fill="#090814" height="153.21" id="Rectangle_675"
                transform="translate(709.586 214.138)" width="8.512" />
            <rect data-name="Rectangle 676" fill="#090814" height="10.64" id="Rectangle_676"
                transform="translate(696.818 220.522)" width="19.151" />
            <rect data-name="Rectangle 677" fill="#090814" height="10.64" id="Rectangle_677"
                transform="translate(696.818 263.08)" width="19.151" />
            <rect data-name="Rectangle 678" fill="#090814" height="10.64" id="Rectangle_678"
                transform="translate(696.818 309.894)" width="19.151" />
            <rect data-name="Rectangle 679" fill="#090814" height="10.64" id="Rectangle_679"
                transform="translate(694.691 207.754)" width="4.256" />
            <rect data-name="Rectangle 680" fill="#090814" height="10.64" id="Rectangle_680"
                transform="translate(711.713 207.754)" width="4.256" />
            <path d="M917.505,389.4q-.439,5.355-1.041,10.639H141.839q-.6-5.285-1.041-10.639Z"
                data-name="Path 2923" fill="#090814" id="Path_2923-1780"
                transform="translate(-120.666 35.401)" />
            <path
                d="M515.482,424.693c-102.026,0-207.255-66.265-312.844-197.029l3.311-2.675C312.155,356.519,417.736,422.315,519.7,420.4c99.111-1.811,197.892-67.535,293.6-195.348l3.407,2.552C720.175,356.521,620.274,422.818,519.782,424.655Q517.633,424.694,515.482,424.693Z"
                data-name="Path 2924" fill="#090814" id="Path_2924-1781"
                transform="translate(-101.165 -16.445)" />
            <path
                d="M511.075,410.395c-96.371,0-195.758-61.448-295.485-182.712l3.287-2.7C319.169,346.93,418.815,407.834,515.151,406.1c93.523-1.716,186.738-62.634,277.056-181.061l3.384,2.581C704.445,347.134,610.117,408.616,515.229,410.357,513.846,410.382,512.459,410.395,511.075,410.395Z"
                data-name="Path 2925" fill="#090814" id="Path_2925-1782"
                transform="translate(-97.081 -16.448)" />
            <path
                d="M752.237,332.535c-1.475-1.264-2.961-2.54-4.436-3.827q-47.772-41.592-95.789-101.045l3.312-2.669q45.594,56.48,90.967,96.726,2.282,2.037,4.577,4.026Q751.587,329.135,752.237,332.535Z"
                data-name="Path 2926" fill="#090814" id="Path_2926-1783"
                transform="translate(40.542 -16.444)" />
            <path
                d="M743.25,310.653q-2.476-2.212-4.939-4.518a785.148,785.148,0,0,1-73.352-78.455l3.289-2.7a793.373,793.373,0,0,0,67.816,73.247c1.732,1.65,3.453,3.265,5.185,4.846v.012C741.939,305.6,742.618,308.125,743.25,310.653Z"
                data-name="Path 2927" fill="#090814" id="Path_2927-1784"
                transform="translate(44.625 -16.449)" />
            <rect data-name="Rectangle 681" fill="#090814" height="184.538" id="Rectangle_681"
                transform="translate(146.992 243.456)" width="4.256" />
            <rect data-name="Rectangle 682" fill="#090814" height="144.025" id="Rectangle_682"
                transform="translate(186.583 283.969)" width="4.256" />
            <rect data-name="Rectangle 683" fill="#090814" height="100.05" id="Rectangle_683"
                transform="translate(240.515 329.008)" width="4.256" />
            <rect data-name="Rectangle 684" fill="#090814" height="67.029" id="Rectangle_684"
                transform="translate(292.142 360.965)" width="4.256" />
            <rect data-name="Rectangle 685" fill="#090814" height="51.089" id="Rectangle_685"
                transform="translate(334.981 379.033)" width="4.256" />
            <rect data-name="Rectangle 686" fill="#090814" height="184.538" id="Rectangle_686"
                transform="translate(736.898 243.456)" width="4.256" />
            <rect data-name="Rectangle 687" fill="#090814" height="144.025" id="Rectangle_687"
                transform="translate(776.489 283.969)" width="4.256" />
            <path
                d="M242.886,227.663q-22.191,27.476-44.348,51.172-2.142,2.265-4.249,4.506-17.7,18.592-35.336,34.762-2.141,1.966-4.26,3.874c-2.06,1.849-4.109,3.675-6.168,5.478-.48.421-.948.843-1.428,1.252-1.006.878-2.025,1.756-3.043,2.622.457-2.282.925-4.553,1.416-6.835v-.012c1.054-.9,2.1-1.826,3.137-2.762.491-.433.972-.866,1.463-1.3v-.012q2.317-2.054,4.623-4.167,2.141-1.931,4.26-3.921,17.645-16.345,35.336-35.2c1.416-1.51,2.832-3.02,4.249-4.553q20.506-22.139,41.036-47.579Z"
                data-name="Path 2928" fill="#090814" id="Path_2928-1785"
                transform="translate(-119.639 -16.444)" />
            <path
                d="M224.65,227.68Q210.762,244.57,196.9,259.9c-1.276,1.4-2.54,2.8-3.815,4.178q-17.856,19.47-35.687,36.342-1.967,1.861-3.909,3.675c-.2.2-.41.386-.609.562-.527.5-1.053.983-1.58,1.475-1.136,1.065-2.271,2.107-3.418,3.137q.983-3.845,2.072-7.678,1.808-1.65,3.593-3.371c.55-.515,1.089-1.03,1.639-1.557q18.4-17.469,36.834-37.735,14.66-16.117,29.343-33.955Z"
                data-name="Path 2929" fill="#090814" id="Path_2929-1786"
                transform="translate(-118.432 -16.449)" />
            <rect data-name="Rectangle 688" fill="#090814" height="184.538" id="Rectangle_688"
                transform="translate(74.648 243.456)" width="4.256" />
            <rect data-name="Rectangle 689" fill="#090814" height="144.025" id="Rectangle_689"
                transform="translate(35.057 283.969)" width="4.256" />
            <rect data-name="Rectangle 690" fill="#090814" height="188.793" id="Rectangle_690"
                transform="translate(672.109 239.2)" width="4.256" />
            <rect data-name="Rectangle 691" fill="#090814" height="144.025" id="Rectangle_691"
                transform="translate(632.515 283.969)" width="4.256" />
            <rect data-name="Rectangle 692" fill="#090814" height="100.05" id="Rectangle_692"
                transform="translate(578.586 329.008)" width="4.256" />
            <rect data-name="Rectangle 693" fill="#090814" height="67.029" id="Rectangle_693"
                transform="translate(526.959 360.965)" width="4.256" />
            <rect data-name="Rectangle 694" fill="#090814" height="51.089" id="Rectangle_694"
                transform="translate(484.118 379.033)" width="4.256" />
            <rect data-name="Rectangle 695" fill="#090814" height="38.53" id="Rectangle_695"
                transform="translate(401.616 391.592)" width="4.256" />
            <path
                d="M438.4,547.825H340.018a5.725,5.725,0,1,1,0-11.449H438.4a5.725,5.725,0,0,1,0,11.449Z"
                data-name="Path 2930" fill="#fff" id="Path_2930-1787"
                transform="translate(-59.648 81.748)" />
            <path
                d="M558.407,521.032H460.025a5.725,5.725,0,1,1,0-11.449h98.381a5.724,5.724,0,1,1,0,11.449Z"
                data-name="Path 2931" fill="#fff" id="Path_2931-1788"
                transform="translate(-21.805 73.299)" />
            <path
                d="M509.8,585.3H411.415a5.725,5.725,0,0,1,0-11.449H509.8a5.725,5.725,0,0,1,0,11.449Z"
                data-name="Path 2932" fill="#fff" id="Path_2932-1789"
                transform="translate(-37.134 93.564)" />
            <path
                d="M362.048,212.05a1.028,1.028,0,1,1,0-2.057h68.076A32.535,32.535,0,0,1,461.6,185.127a45.245,45.245,0,0,1,82.18-9.652c1.012-.079,2-.119,2.958-.119a38.41,38.41,0,0,1,38.2,35.592,1.028,1.028,0,0,1-.954,1.1l-.073,0a1.028,1.028,0,0,1-1.025-.956Z"
                data-name="Path 2933" fill="#e6e6e6" id="Path_2933-1790"
                transform="translate(-51.22 -39.069)" />
            <path
                d="M438.029,219.807H381.465a1.028,1.028,0,1,1,0-2.057h56.564a1.028,1.028,0,1,1,0,2.057Z"
                data-name="Path 2934" fill="#e6e6e6" id="Path_2934-1791"
                transform="translate(-45.097 -18.728)" />
            <path
                d="M451.665,113.7l8.553-6.841c-6.644-.733-9.374,2.891-10.492,5.759-5.191-2.155-10.842.669-10.842.669L456,119.5A12.949,12.949,0,0,0,451.665,113.7Z"
                data-name="Path 2935" fill="#090814" id="Path_2935-1792"
                transform="translate(-26.666 -53.727)" />
            <path
                d="M474.8,248.956l8.553-6.841c-6.644-.733-9.374,2.891-10.492,5.759-5.191-2.155-10.842.669-10.842.669l17.113,6.213a12.949,12.949,0,0,0-4.332-5.8Z"
                data-name="Path 2936" fill="#090814" id="Path_2936-1793"
                transform="translate(-19.371 -11.075)" />
            <path
                d="M626.963,198.235l8.553-6.841c-6.644-.733-9.374,2.891-10.492,5.759-5.191-2.155-10.842.669-10.842.669l17.113,6.213A12.95,12.95,0,0,0,626.963,198.235Z"
                data-name="Path 2937" fill="#090814" id="Path_2937-1794"
                transform="translate(28.613 -27.069)" />
            <rect data-name="Rectangle 696" fill="#090814" height="14.045" id="Rectangle_696"
                transform="translate(67.887 512.07)" width="83.102" />
            <rect data-name="Rectangle 697" fill="#090814" height="14.045" id="Rectangle_697"
                transform="translate(663.644 512.07)" width="83.102" />
            <rect data-name="Rectangle 698" fill="#090814" height="3.511" id="Rectangle_698"
                transform="translate(19.376 414.524)" width="778.085" />
        </g>
    </g>
</svg>