<svg artist="Katerina Limpitsouni" height="654.979" role="img" source="https://undraw.co/"
    viewBox="0 0 800.243 654.979" width="800.243" xmlns="http://www.w3.org/2000/svg">
    <g data-name="Group 18" id="Group_18" transform="translate(2991 -16175)">
        <path
            d="M765.442,654.979H34.8A34.98,34.98,0,0,1,0,619.9V35.078A34.98,34.98,0,0,1,34.8,0H765.442a34.98,34.98,0,0,1,34.8,35.078V619.9a34.98,34.98,0,0,1-34.8,35.078Z"
            data-name="Path 27" fill="#090814" id="Path_27-737"
            transform="translate(-2991 16175)" />
        <path
            d="M732.18,622.442H36.28A33.184,33.184,0,0,1,3.134,589.3V36.674A33.184,33.184,0,0,1,36.28,3.527h695.9a33.184,33.184,0,0,1,33.146,33.146V589.3A33.184,33.184,0,0,1,732.18,622.442Z"
            data-name="Path 28" fill="#fff" id="Path_28-738"
            transform="translate(-2988.746 16177.536)" />
        <path d="M107.668,211.022,128.54,190.15h68.489V340.723l-21.946,21.946Z" data-name="Path 29"
            fill="#e6e6e6" id="Path_29-739" transform="translate(-2878.495 16327.41)" />
        <path d="M189.944,158.961l34.77-20.508h54.816V359.27L260,386.077Z" data-name="Path 30"
            fill="#e6e6e6" id="Path_30-740" transform="translate(-2846.383 16304.534)" />
        <path d="M273.288,111.727l18.051-18.051h69.848V380.014l-16.028,27.5Z" data-name="Path 31"
            fill="#e6e6e6" id="Path_31-741" transform="translate(-2812.134 16284.815)" />
        <rect data-name="Rectangle 22" fill="#059669" height="166.384" id="Rectangle_22"
            transform="translate(-2767.388 16522.537)" width="74.278" />
        <rect data-name="Rectangle 23" fill="#059669" height="240.662" id="Rectangle_23"
            transform="translate(-2653 16449.742)" width="74.278" />
        <rect data-name="Rectangle 24" fill="#059669" height="306.027" id="Rectangle_24"
            transform="translate(-2537.127 16384.379)" width="74.278" />
        <path
            d="M101.915,207.925,355.894,70.962,336.613,38.383l107.043,3.324-61.168,79.12-19.281-35.9L107.234,217.947Z"
            data-name="Path 32" fill="#059669" id="Path_32-742"
            transform="translate(-2877.302 16250.327)" />
    </g>
</svg>